<svg width="24" height="23" viewBox="0 0 24 23" fill="none" xmlns="http://www.w3.org/2000/svg">
<path d="M23.0471 4.90503C22.6111 4.34793 21.9329 4.00883 21.2305 4.00883H6.47948L6.01927 2.21642C5.75283 1.17489 4.8324 0.448242 3.76665 0.448242H1.29604C0.884269 0.448242 0.545166 0.787346 0.545166 1.19911C0.545166 1.61088 0.884269 1.94999 1.29604 1.94999H3.76665C4.12997 1.94999 4.44486 2.1922 4.54174 2.55553L7.49679 14.3273C7.76323 15.3688 8.68365 16.0954 9.7494 16.0954H19.4139C20.4796 16.0954 21.4243 15.3688 21.6665 14.3273L23.4831 6.86699C23.6526 6.18878 23.5073 5.46213 23.0471 4.90503ZM22.0056 6.52788L20.1889 13.9882C20.0921 14.3515 19.7772 14.5937 19.4139 14.5937H9.7494C9.38608 14.5937 9.0712 14.3515 8.97431 13.9882L6.86702 5.53479H21.2305C21.4727 5.53479 21.7149 5.6559 21.8602 5.84968C22.0056 6.04345 22.0782 6.28567 22.0056 6.52788Z" fill="white" stroke="white" stroke-width="0.4"/>
<path d="M10.2588 17.0643C8.87816 17.0643 7.73975 18.2028 7.73975 19.5834C7.73975 20.964 8.87816 22.1024 10.2588 22.1024C11.6394 22.1024 12.7779 20.964 12.7779 19.5834C12.7779 18.2028 11.6394 17.0643 10.2588 17.0643ZM10.2588 20.5765C9.7017 20.5765 9.26571 20.1405 9.26571 19.5834C9.26571 19.0263 9.7017 18.5903 10.2588 18.5903C10.8159 18.5903 11.2519 19.0263 11.2519 19.5834C11.2519 20.1163 10.7917 20.5765 10.2588 20.5765Z" fill="white" stroke="white" stroke-width="0.4"/>
<path d="M18.5903 17.0643C17.2097 17.0643 16.0713 18.2028 16.0713 19.5834C16.0713 20.964 17.2097 22.1024 18.5903 22.1024C19.971 22.1024 21.1094 20.964 21.1094 19.5834C21.0852 18.2028 19.971 17.0643 18.5903 17.0643ZM18.5903 20.5765C18.0332 20.5765 17.5973 20.1405 17.5973 19.5834C17.5973 19.0263 18.0332 18.5903 18.5903 18.5903C19.1474 18.5903 19.5834 19.0263 19.5834 19.5834C19.5834 20.1163 19.1232 20.5765 18.5903 20.5765Z" fill="white" stroke="white" stroke-width="0.4"/>
</svg>
