<svg width="314" height="314" viewBox="0 0 314 314" fill="none" xmlns="http://www.w3.org/2000/svg">
<path d="M314 240.147H0V240.304H314V240.147Z" fill="#EBEBEB"/>
<path d="M148.836 212.138H27.5752C26.6253 212.137 25.7148 211.758 25.0437 211.086C24.3725 210.414 23.9956 209.502 23.9956 208.552V38.0945C24.0039 37.15 24.3845 36.2469 25.0547 35.5813C25.7249 34.9158 26.6307 34.5416 27.5752 34.54H148.836C149.787 34.54 150.699 34.9178 151.371 35.5903C152.044 36.2627 152.422 37.1748 152.422 38.1259V208.552C152.422 209.504 152.044 210.416 151.371 211.088C150.699 211.761 149.787 212.138 148.836 212.138ZM27.5752 34.6656C26.6669 34.6672 25.7964 35.0292 25.1547 35.6721C24.513 36.3149 24.1526 37.1861 24.1526 38.0945V208.552C24.1526 209.461 24.513 210.332 25.1547 210.975C25.7964 211.618 26.6669 211.98 27.5752 211.981H148.836C149.745 211.98 150.616 211.618 151.258 210.975C151.901 210.333 152.263 209.461 152.265 208.552V38.0945C152.263 37.1856 151.901 36.3144 151.258 35.6717C150.616 35.029 149.745 34.6672 148.836 34.6656H27.5752Z" fill="#EBEBEB"/>
<path d="M284.679 212.138H163.412C162.461 212.137 161.55 211.758 160.878 211.086C160.206 210.414 159.828 209.503 159.826 208.552V38.0945C159.836 37.1494 160.218 36.2463 160.889 35.5809C161.56 34.9156 162.467 34.5416 163.412 34.54H284.679C285.622 34.5432 286.526 34.9182 287.195 35.5835C287.864 36.2489 288.244 37.151 288.252 38.0945V208.552C288.252 209.501 287.876 210.412 287.206 211.084C286.536 211.756 285.627 212.135 284.679 212.138ZM163.412 34.6656C162.503 34.6672 161.632 35.029 160.989 35.6717C160.346 36.3144 159.985 37.1856 159.983 38.0945V208.552C159.985 209.461 160.346 210.333 160.989 210.975C161.632 211.618 162.503 211.98 163.412 211.981H284.679C285.587 211.98 286.459 211.618 287.101 210.975C287.744 210.333 288.106 209.461 288.107 208.552V38.0945C288.106 37.1856 287.744 36.3144 287.101 35.6717C286.459 35.029 285.587 34.6672 284.679 34.6656H163.412Z" fill="#EBEBEB"/>
<path d="M282.537 246.126H262.711V246.283H282.537V246.126Z" fill="#EBEBEB"/>
<path d="M210.594 244.424H189.612V244.581H210.594V244.424Z" fill="#EBEBEB"/>
<path d="M288.265 251.96H249.059V252.117H288.265V251.96Z" fill="#EBEBEB"/>
<path d="M45.021 250.905H32.9446V251.062H45.021V250.905Z" fill="#EBEBEB"/>
<path d="M69.6391 250.905H50.6169V251.062H69.6391V250.905Z" fill="#EBEBEB"/>
<path d="M153.32 248.255H119.056V248.412H153.32V248.255Z" fill="#EBEBEB"/>
<path d="M170.979 74.1857L135.196 109.975V229.164H260.79V74.1857H170.979Z" fill="white"/>
<path d="M260.789 229.503H135.189C135.1 229.503 135.013 229.467 134.95 229.403C134.886 229.34 134.85 229.253 134.85 229.163V109.975C134.85 109.931 134.859 109.887 134.876 109.846C134.894 109.805 134.919 109.768 134.951 109.737L170.747 73.9407C170.811 73.8786 170.896 73.8428 170.985 73.8402H260.789C260.834 73.8402 260.878 73.849 260.919 73.866C260.96 73.8831 260.998 73.908 261.029 73.9395C261.061 73.971 261.086 74.0084 261.103 74.0496C261.12 74.0907 261.129 74.1348 261.129 74.1793V229.163C261.129 229.208 261.12 229.252 261.103 229.293C261.086 229.334 261.061 229.372 261.029 229.403C260.998 229.435 260.96 229.46 260.919 229.477C260.878 229.494 260.834 229.503 260.789 229.503ZM135.535 228.831H260.45V74.5247H171.124L135.535 110.113V228.831Z" fill="#E0E0E0"/>
<path d="M135.196 109.975L172.744 114.817L170.979 74.1857L135.196 109.975Z" fill="#E6E6E6"/>
<path d="M135.196 109.975H170.979V74.1857L135.196 109.975Z" fill="white"/>
<path d="M170.979 110.308H135.183C135.116 110.308 135.051 110.289 134.995 110.252C134.939 110.215 134.895 110.163 134.869 110.101C134.843 110.04 134.837 109.972 134.85 109.907C134.864 109.842 134.897 109.783 134.945 109.737L170.741 73.9407C170.789 73.8941 170.849 73.8623 170.915 73.849C170.981 73.8356 171.049 73.8413 171.111 73.8653C171.172 73.892 171.225 73.9359 171.261 73.9916C171.298 74.0474 171.318 74.1126 171.318 74.1793V109.975C171.317 110.064 171.28 110.149 171.217 110.211C171.153 110.273 171.068 110.308 170.979 110.308ZM136.012 109.636H170.646V75.002L136.012 109.636Z" fill="#E0E0E0"/>
<path d="M205.255 161.515L226.607 140.163C227.084 139.686 227.463 139.12 227.721 138.496C227.979 137.873 228.112 137.205 228.112 136.53C228.112 135.856 227.979 135.187 227.721 134.564C227.463 133.941 227.084 133.374 226.607 132.897C226.13 132.42 225.564 132.042 224.94 131.784C224.317 131.525 223.649 131.392 222.974 131.392C222.3 131.392 221.631 131.525 221.008 131.784C220.385 132.042 219.818 132.42 219.341 132.897L197.989 154.249L176.637 132.897C175.674 131.934 174.367 131.392 173.004 131.392C171.642 131.392 170.335 131.934 169.371 132.897C168.408 133.861 167.866 135.168 167.866 136.53C167.866 137.893 168.408 139.2 169.371 140.163L190.723 161.515L169.371 182.867C168.408 183.831 167.866 185.138 167.866 186.5C167.866 187.863 168.408 189.17 169.371 190.133C170.335 191.097 171.642 191.638 173.004 191.638C174.367 191.638 175.674 191.097 176.637 190.133L197.989 168.781L219.341 190.133C220.305 191.097 221.612 191.638 222.974 191.638C224.337 191.638 225.644 191.097 226.607 190.133C227.571 189.17 228.112 187.863 228.112 186.5C228.112 185.138 227.571 183.831 226.607 182.867L205.255 161.515Z" fill="#F0F0F0"/>
<path d="M140.044 143.812C138.839 145.015 137.206 145.691 135.503 145.691C133.801 145.691 132.167 145.015 130.963 143.812L110.358 123.201L119.439 114.12L140.044 134.756C141.239 135.96 141.911 137.587 141.911 139.284C141.911 140.981 141.239 142.608 140.044 143.812Z" fill="#F0F0F0"/>
<path d="M110.356 123.241L119.437 114.16L120.276 114.999C121.146 115.869 121.635 117.05 121.635 118.281C121.635 119.512 121.146 120.692 120.276 121.562L117.758 124.08C116.888 124.951 115.707 125.44 114.477 125.44C113.246 125.44 112.065 124.951 111.195 124.08L110.356 123.241Z" fill="#E0E0E0"/>
<path d="M53.1981 56.9659C46.9669 63.2034 42.7248 71.1483 41.008 79.7963C39.2912 88.4443 40.1769 97.4071 43.5529 105.552C46.929 113.697 52.644 120.658 59.9755 125.555C67.307 130.452 75.9258 133.066 84.7426 133.066C93.5593 133.066 102.178 130.452 109.51 125.555C116.841 120.658 122.556 113.697 125.932 105.552C129.308 97.4071 130.194 88.4443 128.477 79.7963C126.76 71.1483 122.518 63.2034 116.287 56.9659C112.146 52.8207 107.229 49.5323 101.816 47.2888C96.4035 45.0452 90.6017 43.8904 84.7426 43.8904C78.8834 43.8904 73.0817 45.0452 67.669 47.2888C62.2564 49.5323 57.3391 52.8207 53.1981 56.9659ZM113.712 117.48C107.983 123.209 100.684 127.11 92.7377 128.691C84.7914 130.271 76.5549 129.46 69.0696 126.36C61.5844 123.259 55.1867 118.009 50.6855 111.272C46.1843 104.535 43.7818 96.6154 43.7818 88.5135C43.7818 80.4115 46.1843 72.4915 50.6855 65.7549C55.1867 59.0184 61.5844 53.7678 69.0696 50.6673C76.5549 47.5668 84.7914 46.7555 92.7377 48.3361C100.684 49.9166 107.983 53.818 113.712 59.547C117.516 63.3509 120.534 67.8668 122.592 72.8369C124.651 77.8069 125.711 83.1339 125.711 88.5135C125.711 93.893 124.651 99.22 122.592 104.19C120.534 109.16 117.516 113.676 113.712 117.48Z" fill="#E0E0E0"/>
<path d="M108.179 113.448C107.884 113.447 107.596 113.359 107.351 113.195C107.106 113.031 106.915 112.798 106.802 112.525C106.689 112.252 106.659 111.952 106.717 111.663C106.774 111.373 106.916 111.107 107.124 110.898C113.05 104.956 116.378 96.9058 116.378 88.5134C116.378 80.1209 113.05 72.0709 107.124 66.1283C106.972 65.993 106.849 65.828 106.763 65.6435C106.677 65.4589 106.629 65.2587 106.623 65.0551C106.617 64.8515 106.653 64.6488 106.728 64.4595C106.803 64.2702 106.916 64.0983 107.06 63.9542C107.204 63.8102 107.376 63.6972 107.565 63.622C107.755 63.5468 107.957 63.5111 108.161 63.5171C108.365 63.5231 108.565 63.5707 108.749 63.6568C108.934 63.743 109.099 63.866 109.234 64.0182C115.72 70.5193 119.362 79.3273 119.362 88.5103C119.362 97.6932 115.72 106.501 109.234 113.002C109.096 113.142 108.932 113.254 108.751 113.33C108.57 113.407 108.376 113.447 108.179 113.448Z" fill="#E0E0E0"/>
<path d="M52.4886 97.6728C52.1525 97.6731 51.8263 97.5597 51.5629 97.351C51.2995 97.1424 51.1144 96.8507 51.0379 96.5235C49.9516 91.9234 49.8146 87.1501 50.6353 82.4953C51.4559 77.8405 53.2169 73.4018 55.8107 69.4504C56.0289 69.1173 56.3704 68.8845 56.7603 68.8033C57.1501 68.722 57.5562 68.7989 57.8894 69.0171C58.2225 69.2353 58.4553 69.5769 58.5365 69.9667C58.6178 70.3565 58.5409 70.7627 58.3227 71.0958C55.9479 74.7053 54.3333 78.7608 53.5775 83.0148C52.8217 87.2689 52.9405 91.6324 53.9267 95.839C53.9733 96.0296 53.9816 96.2275 53.9512 96.4213C53.9207 96.6151 53.8521 96.8009 53.7493 96.968C53.6465 97.135 53.5115 97.28 53.3522 97.3946C53.1929 97.5091 53.0125 97.5908 52.8214 97.6351C52.712 97.6588 52.6005 97.6715 52.4886 97.6728Z" fill="#E0E0E0"/>
<path d="M61.3054 113.448C60.9094 113.447 60.5299 113.289 60.2504 113.009C57.5602 110.329 55.3321 107.222 53.6564 103.815C53.5698 103.639 53.5186 103.448 53.5059 103.253C53.4931 103.057 53.5189 102.861 53.5819 102.676C53.6449 102.49 53.7438 102.319 53.8729 102.172C54.0021 102.025 54.159 101.904 54.3346 101.818C54.5103 101.731 54.7013 101.68 54.8967 101.667C55.0921 101.654 55.2882 101.68 55.4736 101.743C55.6591 101.806 55.8303 101.905 55.9775 102.034C56.1247 102.163 56.2451 102.32 56.3317 102.496C57.8681 105.608 59.9047 108.446 62.3605 110.899C62.6397 111.179 62.7964 111.558 62.7964 111.954C62.7964 112.349 62.6397 112.728 62.3605 113.009C62.0798 113.287 61.701 113.445 61.3054 113.448Z" fill="#E0E0E0"/>
<path d="M132.529 201.214L138.399 207.085L124.767 220.718C124.069 221.415 123.124 221.807 122.138 221.807C121.152 221.807 120.206 221.415 119.509 220.718L118.892 220.1C118.194 219.403 117.803 218.458 117.803 217.472C117.803 216.486 118.194 215.54 118.892 214.843L132.524 201.21L132.529 201.214Z" fill="#F0F0F0"/>
<path d="M132.537 201.227L138.399 207.089L138.119 207.368C137.487 208.001 136.629 208.356 135.735 208.356C134.84 208.356 133.983 208.001 133.35 207.368L132.249 206.267C131.616 205.635 131.261 204.777 131.261 203.883C131.261 202.988 131.616 202.13 132.249 201.498L132.529 201.218L132.537 201.227Z" fill="#E0E0E0"/>
<path d="M178.572 169.372L164.819 183.118C163.292 184.754 162.461 186.919 162.5 189.157C162.539 191.394 163.446 193.528 165.029 195.11C166.612 196.691 168.748 197.596 170.985 197.633C173.222 197.67 175.386 196.836 177.021 195.308L182.585 189.75C183.756 182.696 182.33 175.455 178.572 169.372Z" fill="#F0F0F0"/>
<path d="M183.753 182.635C183.359 176.942 181.285 171.494 177.795 166.979C174.304 162.465 169.553 159.087 164.143 157.273C158.732 155.459 152.905 155.29 147.399 156.788C141.892 158.285 136.954 161.383 133.207 165.687C129.461 169.992 127.076 175.311 126.353 180.972C125.63 186.633 126.603 192.38 129.147 197.489C131.691 202.597 135.693 206.835 140.646 209.669C145.6 212.502 151.282 213.803 156.975 213.407C164.606 212.876 171.713 209.336 176.735 203.565C181.756 197.795 184.281 190.266 183.753 182.635ZM128.545 186.478C128.181 181.252 129.376 176.035 131.977 171.487C134.578 166.939 138.47 163.265 143.16 160.929C147.849 158.593 153.126 157.7 158.323 158.363C163.52 159.026 168.404 161.216 172.357 164.655C176.31 168.094 179.154 172.627 180.53 177.683C181.906 182.738 181.751 188.088 180.087 193.055C178.422 198.023 175.322 202.386 171.178 205.591C167.034 208.797 162.032 210.702 156.805 211.065C149.798 211.551 142.883 209.234 137.584 204.624C132.284 200.013 129.033 193.486 128.545 186.478Z" fill="#E0E0E0"/>
<path d="M140.283 201.531C138.06 199.605 136.24 197.258 134.926 194.627C133.613 191.995 132.831 189.13 132.628 186.196C132.613 186.066 132.625 185.935 132.663 185.81C132.7 185.685 132.763 185.569 132.846 185.469C132.93 185.368 133.033 185.286 133.149 185.227C133.265 185.168 133.393 185.132 133.523 185.123C133.653 185.115 133.784 185.132 133.907 185.175C134.03 185.218 134.143 185.285 134.24 185.373C134.336 185.461 134.414 185.568 134.468 185.686C134.522 185.805 134.552 185.933 134.556 186.064C134.94 191.472 137.452 196.507 141.541 200.067C145.63 203.628 150.963 205.423 156.372 205.061C156.627 205.043 156.878 205.128 157.071 205.296C157.264 205.463 157.382 205.701 157.399 205.956C157.416 206.21 157.332 206.462 157.164 206.654C156.996 206.847 156.759 206.965 156.504 206.982C153.575 207.186 150.634 206.809 147.85 205.874C145.067 204.938 142.495 203.463 140.283 201.531Z" fill="#E0E0E0"/>
<path d="M174.986 179.608C174.842 179.484 174.74 179.32 174.69 179.137C173.934 176.449 172.638 173.944 170.882 171.773C169.125 169.603 166.944 167.814 164.473 166.514C164.257 166.39 164.097 166.187 164.027 165.947C163.957 165.708 163.982 165.451 164.097 165.23C164.212 165.008 164.408 164.84 164.645 164.76C164.881 164.68 165.139 164.694 165.365 164.8C168.07 166.222 170.457 168.181 172.38 170.556C174.303 172.931 175.721 175.674 176.549 178.616C176.584 178.738 176.593 178.865 176.578 178.991C176.563 179.117 176.523 179.239 176.46 179.349C176.398 179.459 176.314 179.556 176.214 179.634C176.114 179.712 176 179.769 175.877 179.803C175.724 179.845 175.563 179.849 175.407 179.816C175.252 179.782 175.107 179.71 174.986 179.608Z" fill="#E0E0E0"/>
<path d="M152.849 163.99C152.657 163.819 152.539 163.58 152.522 163.324C152.505 163.069 152.589 162.818 152.756 162.625C152.923 162.432 153.159 162.313 153.414 162.294C155.863 162.124 158.324 162.355 160.699 162.978C160.822 163.011 160.938 163.068 161.04 163.145C161.142 163.223 161.228 163.319 161.292 163.43C161.356 163.54 161.398 163.662 161.416 163.789C161.433 163.916 161.425 164.045 161.393 164.169C161.36 164.292 161.303 164.408 161.226 164.51C161.148 164.612 161.052 164.698 160.941 164.762C160.831 164.826 160.709 164.868 160.582 164.886C160.455 164.903 160.326 164.895 160.202 164.862C158.035 164.289 155.788 164.077 153.552 164.234C153.295 164.247 153.042 164.159 152.849 163.99Z" fill="#E0E0E0"/>
<path d="M157 268.508C224.248 268.508 278.763 265.325 278.763 261.399C278.763 257.473 224.248 254.29 157 254.29C89.7524 254.29 35.2373 257.473 35.2373 261.399C35.2373 265.325 89.7524 268.508 157 268.508Z" fill="#F5F5F5"/>
<path d="M86.5516 91.6127C81.49 96.7058 90.0936 104.612 84.4102 108.242C89.0511 110.572 105.316 113.53 109.53 104.367C106.459 101.981 108.594 96.1155 105.762 90.4823C101.523 82.1299 81.49 85.8289 86.5516 91.6127Z" fill="#263238"/>
<path d="M87.0095 91.4809C85.4332 91.2171 80.1015 93.8673 84.0705 100.983C87.267 106.735 84.6043 107.143 84.6043 107.143C84.6043 107.143 87.7443 107.231 85.8603 102.954C83.8632 98.3889 82.9275 93.6538 87.0095 91.4809Z" fill="#263238"/>
<path d="M124.344 136.659C124.15 136.304 123.824 136.039 123.437 135.921C123.049 135.804 122.631 135.843 122.272 136.031L121.901 136.226C121.782 136.289 121.556 136.439 121.374 136.546C121.192 136.653 120.978 136.772 120.777 136.873C120.381 137.072 119.972 137.244 119.553 137.388C118.776 137.669 117.96 137.824 117.135 137.846C116.377 137.855 115.623 137.734 114.905 137.488C114.45 137.319 114.011 137.109 113.593 136.86C113.053 135.667 112.538 134.461 112.098 133.218C111.564 131.767 111.094 130.285 110.679 128.784C110.265 127.283 109.9 125.763 109.599 124.237C109.442 123.477 109.304 122.711 109.178 121.951L109.009 120.815C108.952 120.451 108.902 120.036 108.87 119.747V119.622C108.787 118.789 108.376 118.023 107.729 117.493C107.081 116.963 106.249 116.712 105.416 116.796C104.584 116.879 103.818 117.29 103.288 117.937C102.758 118.585 102.507 119.417 102.59 120.25C102.634 120.783 102.672 121.192 102.729 121.637C102.785 122.083 102.848 122.51 102.911 122.944C103.049 123.81 103.206 124.664 103.382 125.518C103.731 127.216 104.171 128.893 104.7 130.542C104.945 131.371 105.247 132.188 105.529 133.011C105.812 133.833 106.157 134.637 106.515 135.435C107.201 137.046 107.979 138.617 108.845 140.138L108.921 140.276C109.146 140.685 109.484 141.021 109.894 141.244C111.081 141.891 112.364 142.344 113.693 142.588C115.059 142.829 116.459 142.799 117.813 142.5C119.724 142.056 121.48 141.104 122.894 139.743C123.126 139.529 123.346 139.309 123.522 139.077C123.697 138.845 123.911 138.625 124.15 138.298C124.334 138.071 124.45 137.797 124.484 137.507C124.519 137.217 124.47 136.923 124.344 136.659Z" fill="#B55B52"/>
<path d="M128.52 130.781H128.338C127.737 130.768 127.141 130.894 126.597 131.149C126.052 131.404 125.574 131.781 125.198 132.251L122.165 136.056V138.656C124.602 139.623 127.691 137.017 127.691 137.017L129.255 136.622C129.781 136.49 130.24 136.168 130.543 135.718C130.846 135.268 130.971 134.722 130.894 134.185L130.668 132.659C130.594 132.141 130.337 131.666 129.943 131.321C129.549 130.977 129.044 130.785 128.52 130.781Z" fill="#B55B52"/>
<path d="M108.789 116.105C110.817 118.19 110.943 124.413 110.943 124.413L102.829 130.944C102.829 130.944 99.4942 121.713 101.341 118.454C102.904 115.69 106.201 113.448 108.789 116.105Z" fill="#9F5DE2"/>
<g opacity="0.2">
<path opacity="0.2" d="M108.789 116.105C110.817 118.19 110.943 124.413 110.943 124.413L102.829 130.944C102.829 130.944 99.4942 121.713 101.341 118.454C102.904 115.69 106.201 113.448 108.789 116.105Z" fill="white"/>
</g>
<path d="M95.3618 256.017L99.8457 256.507L100.461 244.324L95.9773 243.828L95.3618 256.017Z" fill="#B55B52"/>
<path d="M100.581 253.58H95.3118C95.2056 253.577 95.1022 253.615 95.0236 253.687C94.945 253.758 94.8975 253.857 94.891 253.963L94.5393 258.944C94.5392 259.204 94.641 259.454 94.8228 259.641C95.0047 259.827 95.2523 259.935 95.5127 259.942C97.7358 259.942 97.7609 259.942 100.537 259.942H108.016C110.315 259.942 110.321 257.612 109.329 257.399C104.864 256.457 103.124 255.15 101.548 253.907C101.271 253.693 100.93 253.579 100.581 253.58Z" fill="#263238"/>
<path opacity="0.2" d="M100.461 244.33L100.141 250.61H95.6321L95.9775 243.834L100.461 244.33Z" fill="black"/>
<path d="M102.879 147.122C102.879 147.122 106.76 179.608 106.76 194.052C103.702 214.148 101.108 249.417 101.108 249.417L94.9038 249.253C94.9038 249.253 92.084 210.845 94.6965 194.259C91.3493 179.401 87.217 145.112 87.217 145.112L102.879 147.122Z" fill="#263238"/>
<path opacity="0.2" d="M90.9156 156.165C90.1761 156.49 89.4586 156.864 88.7678 157.283C89.6219 163.695 90.746 171.764 91.9392 179.212C93.9739 173.083 92.8749 159.606 90.9156 156.165Z" fill="black"/>
<path d="M46.8049 244.707L50.5039 247.288L56.8843 236.888L53.1854 234.307L46.8049 244.707Z" fill="#B55B52"/>
<path d="M51.4397 245.925L48.2997 241.699C48.2399 241.612 48.1485 241.552 48.0452 241.532C47.9418 241.512 47.8348 241.534 47.747 241.592L43.5394 244.292C43.3295 244.447 43.1888 244.678 43.1477 244.935C43.1066 245.192 43.1683 245.455 43.3196 245.668C44.6322 247.457 44.6573 247.47 46.3089 249.693C47.3326 251.056 49.3736 253.8 50.7803 255.69C52.187 257.581 54.027 256.149 53.6 255.219C51.716 251.081 51.716 248.939 51.7537 246.905C51.7601 246.552 51.6497 246.208 51.4397 245.925Z" fill="#263238"/>
<path opacity="0.2" d="M56.8782 236.888L53.5938 242.251L49.6311 240.091L53.1856 234.307L56.8782 236.888Z" fill="black"/>
<path d="M97.9119 146.481C97.9119 146.481 87.1982 183.609 81.967 197.073C71.831 214.695 55.0132 241.661 55.0132 241.661L49.6438 238.521C49.6438 238.521 62.2038 207.372 70.6504 192.865C72.9175 177.793 81.4897 144.346 81.4897 144.346L97.9119 146.481Z" fill="#263238"/>
<path d="M52.4067 248.958C52.6198 249.311 52.9481 249.579 53.3361 249.718C53.4497 249.745 53.5687 249.741 53.6796 249.704C53.7906 249.667 53.8891 249.6 53.9641 249.511C54.0164 249.463 54.0562 249.403 54.0803 249.336C54.1043 249.27 54.1119 249.198 54.1023 249.128C54.0269 248.374 52.0801 247.395 51.6908 247.206C51.6681 247.197 51.6428 247.196 51.6197 247.204C51.5965 247.212 51.5772 247.229 51.5652 247.25C51.55 247.273 51.542 247.301 51.542 247.329C51.542 247.356 51.55 247.384 51.5652 247.407C51.7958 247.95 52.0776 248.469 52.4067 248.958ZM53.7443 248.958C53.7996 249.027 53.8364 249.11 53.8511 249.197C53.8541 249.221 53.8511 249.246 53.8424 249.269C53.8336 249.292 53.8194 249.313 53.8009 249.329C53.7502 249.386 53.6851 249.43 53.6123 249.454C53.5395 249.478 53.4615 249.483 53.3864 249.467C52.9719 249.385 52.4255 248.713 51.898 247.652C52.582 247.971 53.2064 248.404 53.7443 248.933V248.958Z" fill="#9F5DE2"/>
<path d="M51.5341 247.432L51.5718 247.464C52.1998 247.809 53.8326 248.092 54.1905 247.57C54.2506 247.475 54.2799 247.364 54.2742 247.251C54.2686 247.139 54.2284 247.031 54.1591 246.942C53.5311 245.831 51.6471 247.137 51.5655 247.194C51.5468 247.209 51.5319 247.228 51.5221 247.25C51.5122 247.271 51.5077 247.295 51.509 247.319C51.5064 247.359 51.5152 247.398 51.5341 247.432ZM53.9205 247.068C53.9388 247.09 53.9556 247.113 53.9707 247.137C54.0398 247.256 54.0524 247.344 54.0147 247.395C53.8075 247.696 52.6017 247.589 51.8983 247.313C52.3693 247.03 53.4683 246.459 53.9205 247.068Z" fill="#9F5DE2"/>
<path d="M103.621 254.616C104.032 254.654 104.444 254.55 104.789 254.321C104.876 254.245 104.94 254.146 104.975 254.035C105.009 253.924 105.012 253.806 104.983 253.693C104.974 253.622 104.949 253.554 104.91 253.495C104.871 253.435 104.819 253.385 104.757 253.348C104.129 252.965 102.164 253.938 101.781 254.139C101.759 254.151 101.742 254.17 101.733 254.193C101.724 254.216 101.723 254.241 101.73 254.265C101.74 254.291 101.756 254.315 101.777 254.333C101.797 254.352 101.822 254.365 101.85 254.372C102.43 254.513 103.023 254.596 103.621 254.616ZM104.399 253.53C104.489 253.524 104.578 253.544 104.657 253.587C104.688 253.587 104.72 253.631 104.732 253.706C104.749 253.781 104.744 253.859 104.72 253.932C104.696 254.005 104.652 254.07 104.594 254.12C104.286 254.403 103.42 254.441 102.252 254.233C102.912 253.88 103.627 253.642 104.368 253.53H104.399Z" fill="#9F5DE2"/>
<path d="M101.849 254.403H101.893C102.521 254.114 103.746 252.965 103.545 252.368C103.503 252.27 103.433 252.186 103.344 252.126C103.254 252.067 103.149 252.036 103.042 252.036C101.786 251.891 101.698 254.164 101.692 254.259C101.692 254.284 101.699 254.308 101.711 254.33C101.723 254.352 101.74 254.371 101.761 254.384C101.788 254.399 101.819 254.406 101.849 254.403ZM102.98 252.268H103.067C103.199 252.268 103.281 252.324 103.3 252.387C103.419 252.733 102.615 253.643 101.968 254.039C102.025 253.492 102.226 252.268 102.992 252.268H102.98Z" fill="#9F5DE2"/>
<path d="M81.4893 144.377L102.879 147.115C107.702 130.875 109.291 123.032 109.718 119.257C109.831 118.309 109.609 117.35 109.091 116.548C108.573 115.745 107.79 115.149 106.879 114.861C105.623 114.459 104.003 113.982 102.395 113.605C101.849 113.461 101.29 113.329 100.744 113.203C97.5415 112.554 94.297 112.134 91.0349 111.947C90.5513 111.903 90.074 111.878 89.5905 111.853C88.6422 111.803 87.7065 111.79 86.8524 111.79C86.2114 111.79 85.5772 111.922 84.9903 112.18C84.4034 112.438 83.8766 112.815 83.4436 113.288C83.0105 113.761 82.6807 114.318 82.475 114.925C82.2694 115.533 82.1925 116.176 82.2491 116.814C82.4187 118.698 82.5506 120.451 82.6511 122.058C82.8897 125.826 82.9651 128.841 82.9085 131.478C82.7802 135.809 82.3056 140.122 81.4893 144.377Z" fill="#9F5DE2"/>
<g opacity="0.3">
<path opacity="0.3" d="M81.4893 144.377L102.879 147.115C107.702 130.875 109.291 123.032 109.718 119.257C109.831 118.309 109.609 117.35 109.091 116.548C108.573 115.745 107.79 115.149 106.879 114.861C105.623 114.459 104.003 113.982 102.395 113.605C101.849 113.461 101.29 113.329 100.744 113.203C97.5415 112.554 94.297 112.134 91.0349 111.947C90.5513 111.903 90.074 111.878 89.5905 111.853C88.6422 111.803 87.7065 111.79 86.8524 111.79C86.2114 111.79 85.5772 111.922 84.9903 112.18C84.4034 112.438 83.8766 112.815 83.4436 113.288C83.0105 113.761 82.6807 114.318 82.475 114.925C82.2694 115.533 82.1925 116.176 82.2491 116.814C82.4187 118.698 82.5506 120.451 82.6511 122.058C82.8897 125.826 82.9651 128.841 82.9085 131.478C82.7802 135.809 82.3056 140.122 81.4893 144.377Z" fill="white"/>
</g>
<path opacity="0.3" d="M82.8959 131.453C85.7219 127.798 86.7455 123.616 85.8287 121.311L82.6384 122.027C82.8959 125.782 82.965 128.809 82.8959 131.453Z" fill="#9F5DE2"/>
<path d="M102.395 113.568C101.843 113.423 101.29 113.291 100.744 113.166C97.5388 112.519 94.2924 112.099 91.0285 111.91C90.5449 111.872 90.0676 111.847 89.5904 111.822L88.7551 111.784L89.3831 112.883C89.471 113.034 91.6062 116.526 96.9191 120.281L98.0558 121.072L99.1485 120.237C100.201 119.482 101.061 118.49 101.659 117.341C102.256 116.193 102.575 114.919 102.59 113.624L102.395 113.568Z" fill="white"/>
<path d="M93.3901 105.454C93.1891 108.098 92.5674 110.792 91.0288 111.922C91.0288 111.922 92.9882 115.182 98.0624 118.742C101.24 116.312 100.744 113.166 100.744 113.166C97.3653 111.91 97.604 109.567 99.0295 105.831L96.3919 104.411C96.1644 104.161 95.8681 103.982 95.54 103.899C95.2119 103.815 94.8664 103.829 94.5465 103.941C94.2266 104.052 93.9464 104.254 93.7408 104.523C93.5352 104.792 93.4133 105.116 93.3901 105.454Z" fill="#B55B52"/>
<path opacity="0.2" d="M96.3916 104.411C96.1779 104.175 95.9031 104.003 95.5975 103.913C95.2919 103.824 94.9675 103.82 94.6601 103.903C94.3527 103.987 94.0743 104.153 93.8557 104.385C93.637 104.616 93.4866 104.904 93.4211 105.215C94.4231 107.235 96.0389 108.886 98.0369 109.932C98.1085 108.515 98.4428 107.125 99.0229 105.831L96.3916 104.411Z" fill="black"/>
<path d="M89.283 97.1642C90.5956 102.27 91.0414 104.455 94.1626 106.584C98.8538 109.812 104.839 107.087 105.071 101.698C105.291 96.8439 103.112 89.308 97.6606 88.2278C96.4572 87.9818 95.2109 88.0481 94.0405 88.4205C92.87 88.7928 91.8145 89.4588 90.9745 90.3549C90.1344 91.2509 89.5379 92.3472 89.2419 93.5392C88.9458 94.7313 88.9599 95.9792 89.283 97.1642Z" fill="#B55B52"/>
<path d="M102.277 89.2828C99.2016 92.0163 95.5538 94.0269 91.6006 95.1672C91.6006 95.1672 95.5005 103.463 88.2031 101.372C86.0868 94.3068 88.2031 90.6393 90.0871 88.9123C95.8898 87.0283 99.9718 86.4003 102.277 89.2828Z" fill="#263238"/>
<path d="M89.0381 102.195C89.466 103.12 90.2427 103.838 91.1984 104.192C92.4544 104.644 93.2017 103.564 92.9317 102.308C92.6867 101.184 91.7322 99.5884 90.4197 99.6701C90.1358 99.6943 89.8623 99.7884 89.6236 99.944C89.3849 100.1 89.1884 100.312 89.0516 100.562C88.9149 100.812 88.842 101.092 88.8397 101.376C88.8373 101.661 88.9055 101.942 89.0381 102.195Z" fill="#B55B52"/>
<path d="M81.3325 143.084L80.1205 144.873C80.0263 145.012 80.1833 145.187 80.4282 145.219L102.86 148.095C103.055 148.095 103.225 148.045 103.256 147.926L103.696 146.042C103.696 145.91 103.57 145.778 103.363 145.746L81.6967 142.971C81.6315 142.955 81.5633 142.958 81.4993 142.978C81.4352 142.997 81.3777 143.034 81.3325 143.084Z" fill="#9F5DE2"/>
<path d="M83.9257 145.878L83.348 145.803C83.2349 145.803 83.1533 145.715 83.1721 145.646L83.7625 143.19C83.7849 143.149 83.8208 143.117 83.8642 143.098C83.9075 143.08 83.9558 143.077 84.0011 143.09L84.5851 143.165C84.6982 143.165 84.7798 143.247 84.761 143.322L84.1707 145.772C84.1518 145.847 84.0451 145.891 83.9257 145.878Z" fill="#263238"/>
<path d="M101.202 148.089L100.624 148.02C100.511 148.02 100.43 147.932 100.449 147.856L101.039 145.407C101.039 145.338 101.164 145.288 101.277 145.301L101.862 145.376C101.975 145.376 102.056 145.464 102.037 145.533L101.447 147.988C101.428 148.057 101.321 148.108 101.202 148.089Z" fill="#263238"/>
<path d="M92.5673 146.984L91.9895 146.908C91.8702 146.908 91.7886 146.827 91.8074 146.751L92.3977 144.302C92.3977 144.227 92.5233 144.183 92.6426 144.195L93.2204 144.271C93.3334 144.271 93.4151 144.359 93.4025 144.428L92.8059 146.883C92.7933 146.952 92.6803 146.996 92.5673 146.984Z" fill="#263238"/>
<path d="M98.0307 96.9445C98.106 97.3653 98.3949 97.6667 98.6587 97.6102C98.9224 97.5537 99.092 97.1769 99.0104 96.7561C98.9287 96.3354 98.6398 96.0339 98.3824 96.0904C98.1249 96.147 97.9679 96.5238 98.0307 96.9445Z" fill="#263238"/>
<path d="M102.779 96.0339C102.86 96.4546 103.149 96.7498 103.407 96.6996C103.664 96.6493 103.84 96.26 103.758 95.8392C103.677 95.4185 103.388 95.1233 103.13 95.1735C102.873 95.2238 102.703 95.6131 102.779 96.0339Z" fill="#263238"/>
<path d="M102.992 95.2237L103.946 94.7339C103.946 94.7339 103.62 95.6256 102.992 95.2237Z" fill="#263238"/>
<path d="M101.523 96.976C102.084 97.8606 102.762 98.6654 103.539 99.3686C103.355 99.5641 103.13 99.7167 102.88 99.8155C102.631 99.9142 102.362 99.9568 102.094 99.9401L101.523 96.976Z" fill="#CC7F77"/>
<path d="M98.5584 101.636C98.5394 101.658 98.5287 101.685 98.5279 101.714C98.5271 101.743 98.5364 101.772 98.5541 101.795C98.5719 101.818 98.597 101.834 98.6252 101.84C98.6535 101.847 98.6831 101.843 98.7091 101.83C99.1836 101.588 99.7087 101.462 100.241 101.462C100.774 101.462 101.299 101.588 101.774 101.83C101.802 101.847 101.836 101.851 101.867 101.843C101.899 101.835 101.926 101.814 101.943 101.786C101.96 101.758 101.966 101.724 101.959 101.691C101.952 101.658 101.933 101.63 101.906 101.611C101.393 101.348 100.826 101.211 100.251 101.211C99.6754 101.211 99.1082 101.348 98.596 101.611C98.596 101.611 98.596 101.623 98.5584 101.636Z" fill="#263238"/>
<path d="M96.3923 95.6507C96.431 95.6269 96.4617 95.5918 96.4802 95.5503C96.6111 95.264 96.8079 95.0129 97.0546 94.8175C97.3014 94.6221 97.5909 94.488 97.8995 94.4261C97.9326 94.4223 97.9646 94.4118 97.9936 94.3955C98.0226 94.3791 98.0481 94.3572 98.0685 94.3309C98.089 94.3046 98.104 94.2745 98.1127 94.2423C98.1214 94.2101 98.1237 94.1766 98.1193 94.1435C98.1162 94.1107 98.1065 94.0788 98.0908 94.0499C98.0751 94.0209 98.0537 93.9953 98.0279 93.9748C98.0021 93.9543 97.9724 93.9392 97.9406 93.9304C97.9089 93.9216 97.8756 93.9194 97.843 93.9237C97.4504 93.9971 97.081 94.1629 96.7654 94.4076C96.4497 94.6522 96.197 94.9686 96.028 95.3305C96.0036 95.38 95.9963 95.4362 96.007 95.4903C96.0178 95.5445 96.0461 95.5936 96.0875 95.6301C96.129 95.6665 96.1813 95.6883 96.2364 95.692C96.2915 95.6958 96.3463 95.6813 96.3923 95.6507Z" fill="#263238"/>
<path d="M104.192 92.4668L104.223 92.4354C104.243 92.4082 104.256 92.3776 104.263 92.3451C104.271 92.3127 104.271 92.2792 104.265 92.2464C104.26 92.2137 104.247 92.1825 104.229 92.1546C104.211 92.1266 104.188 92.1026 104.161 92.0837C103.836 91.8504 103.46 91.6979 103.065 91.6389C102.67 91.5799 102.266 91.6161 101.887 91.7446C101.827 91.771 101.779 91.8195 101.753 91.8803C101.727 91.9411 101.726 92.0094 101.749 92.0712C101.774 92.1327 101.823 92.1818 101.884 92.2077C101.945 92.2336 102.014 92.2342 102.076 92.2093C102.376 92.1108 102.696 92.0856 103.009 92.1358C103.321 92.1861 103.617 92.3103 103.872 92.4982C103.92 92.5325 103.979 92.5483 104.038 92.5425C104.097 92.5367 104.151 92.5098 104.192 92.4668Z" fill="#263238"/>
<path d="M98.2634 96.1343L99.218 95.6508C99.218 95.6508 98.8475 96.5362 98.2634 96.1343Z" fill="#263238"/>
<path d="M89.1763 148.114L89.1261 148.057C88.1464 147.078 87.1102 146.01 86.1745 144.917C85.2388 143.825 84.3219 142.732 83.4867 141.602C82.6678 140.499 81.923 139.343 81.2573 138.141C80.7809 137.282 80.3755 136.385 80.0452 135.46C80.422 134.204 80.8239 132.948 81.3012 131.742C81.8476 130.291 82.463 128.866 83.135 127.459C83.8069 126.052 84.5229 124.671 85.2953 123.32C85.6721 122.642 86.0677 121.97 86.4759 121.311L87.1039 120.344C87.2986 120.03 87.531 119.716 87.6943 119.446L87.7633 119.345C88.2098 118.665 88.3746 117.838 88.223 117.038C88.0714 116.238 87.6153 115.529 86.9508 115.059C86.2863 114.589 85.4654 114.396 84.661 114.519C83.8566 114.643 83.1316 115.074 82.6389 115.722C82.3249 116.149 82.0862 116.488 81.835 116.858C81.5838 117.229 81.3577 117.599 81.1191 117.97C80.6607 118.711 80.2148 119.458 79.7877 120.218C78.9382 121.734 78.1689 123.294 77.483 124.89C77.1313 125.682 76.855 126.492 76.497 127.302C76.1391 128.112 75.9004 128.935 75.6492 129.776C75.1162 131.444 74.678 133.14 74.3367 134.857V135.001C74.2392 135.46 74.2719 135.936 74.4309 136.377C75.0394 137.987 75.8475 139.514 76.8361 140.923C77.7672 142.261 78.8047 143.521 79.9385 144.691C81.0429 145.819 82.2153 146.878 83.449 147.863C84.6821 148.846 85.9763 149.75 87.3237 150.569C87.6509 150.761 88.0367 150.826 88.4087 150.754C88.7806 150.681 89.1134 150.475 89.3445 150.175C89.5756 149.874 89.6892 149.5 89.664 149.122C89.6388 148.743 89.4766 148.387 89.2077 148.12L89.1763 148.114Z" fill="#B55B52"/>
<path d="M96.4739 151.235L96.3923 151.072C96.1316 150.528 95.748 150.052 95.2717 149.681C94.7954 149.31 94.2395 149.056 93.6479 148.937L88.8814 147.97L86.5515 149.131C86.8027 151.744 90.533 153.308 90.533 153.308L91.5944 154.52C91.9522 154.926 92.4475 155.186 92.9852 155.25C93.523 155.314 94.0653 155.177 94.5083 154.865L95.7643 153.967C96.1864 153.669 96.4893 153.231 96.6192 152.731C96.7491 152.231 96.6977 151.701 96.4739 151.235Z" fill="#B55B52"/>
<path d="M84.8992 112.192C82.2553 113.404 79.4419 117.599 79.4419 117.599L85.0939 128.181C85.0939 128.181 91.5183 120.777 90.9783 117.072C90.5387 113.926 88.2653 110.647 84.8992 112.192Z" fill="#9F5DE2"/>
<g opacity="0.3">
<path opacity="0.3" d="M84.8992 112.192C82.2553 113.404 79.4419 117.599 79.4419 117.599L85.0939 128.181C85.0939 128.181 91.5183 120.777 90.9783 117.072C90.5387 113.926 88.2653 110.647 84.8992 112.192Z" fill="white"/>
</g>
<path d="M192.714 253.725L185.901 251.043L189.493 239.23L196.313 241.906L192.714 253.725Z" fill="#B55B52"/>
<path d="M185.738 250.321L193.424 253.335C193.522 253.375 193.603 253.446 193.655 253.537C193.707 253.628 193.728 253.734 193.713 253.838L192.96 258.623C192.94 258.739 192.895 258.848 192.827 258.944C192.759 259.04 192.671 259.12 192.569 259.177C192.466 259.234 192.352 259.268 192.235 259.275C192.118 259.282 192.001 259.263 191.892 259.22C189.964 258.422 186.943 257.103 184.5 256.142C182.999 255.552 180.142 254.61 178.063 253.794C175.985 252.977 176.525 250.817 177.435 250.968C181.574 251.633 183.156 250.924 184.808 250.308C185.108 250.193 185.441 250.198 185.738 250.321Z" fill="#263238"/>
<path opacity="0.2" d="M196.312 241.912L189.492 239.23L187.64 245.322L194.46 248.004L196.312 241.912Z" fill="black"/>
<path d="M204.835 150.475C204.835 150.475 198.668 180.958 196.313 195.993C193.663 212.842 186.66 243.62 186.66 243.62L195.722 247.181C195.722 247.181 208.666 215.668 210.468 200.407C215.9 188.004 226.702 151.505 226.702 151.505L204.835 150.475Z" fill="#9F5DE2"/>
<path d="M186.221 243.67L196.169 247.583L197.871 244.568L186.749 239.959L186.221 243.67Z" fill="#263238"/>
<path d="M183.784 250.453C183.437 250.345 183.136 250.123 182.93 249.825C182.872 249.714 182.843 249.591 182.843 249.467C182.843 249.342 182.872 249.219 182.93 249.109C182.955 249.041 182.999 248.981 183.057 248.936C183.115 248.892 183.184 248.865 183.256 248.858C183.916 248.788 185.14 250.396 185.26 250.584C185.273 250.605 185.28 250.629 185.28 250.654C185.28 250.678 185.273 250.702 185.26 250.723C185.246 250.743 185.228 250.76 185.205 250.77C185.183 250.78 185.158 250.783 185.134 250.779C184.673 250.72 184.221 250.61 183.784 250.453ZM183.451 249.14C183.4 249.115 183.344 249.104 183.288 249.109C183.25 249.109 183.206 249.109 183.162 249.215C183.12 249.29 183.098 249.375 183.098 249.46C183.098 249.546 183.12 249.63 183.162 249.705C183.344 250.038 183.972 250.333 184.883 250.484C184.5 249.945 184.013 249.488 183.451 249.14Z" fill="#9F5DE2"/>
<path d="M185.122 250.773C185.101 250.766 185.084 250.753 185.071 250.735C184.669 250.258 184.104 248.782 184.443 248.274C184.496 248.195 184.573 248.136 184.664 248.108C184.754 248.079 184.851 248.082 184.939 248.117C185.033 248.14 185.12 248.183 185.196 248.243C185.271 248.302 185.334 248.377 185.379 248.462C185.768 249.159 185.329 250.629 185.31 250.691C185.303 250.714 185.289 250.734 185.272 250.749C185.254 250.764 185.233 250.775 185.209 250.779C185.196 250.786 185.18 250.789 185.165 250.788C185.149 250.787 185.134 250.782 185.122 250.773ZM184.908 248.374H184.858C184.694 248.336 184.657 248.374 184.638 248.431C184.45 248.732 184.757 249.8 185.115 250.384C185.294 249.803 185.294 249.181 185.115 248.6C185.076 248.502 185.002 248.422 184.908 248.374Z" fill="#9F5DE2"/>
<path opacity="0.2" d="M218.13 168.932C214.713 173.165 213.363 183.954 213.376 192.947C215.68 186.598 218.324 178.534 220.648 171.212L218.13 168.932Z" fill="black"/>
<path d="M233.722 254.861H226.4L225.427 242.552H232.749L233.722 254.861Z" fill="#B55B52"/>
<path d="M225.986 254.246H234.244C234.35 254.245 234.453 254.281 234.535 254.347C234.617 254.414 234.674 254.507 234.696 254.61L235.745 259.333C235.769 259.448 235.768 259.567 235.74 259.682C235.712 259.796 235.658 259.903 235.584 259.994C235.509 260.085 235.415 260.158 235.308 260.208C235.201 260.258 235.084 260.283 234.966 260.281C232.881 260.243 229.597 260.118 226.972 260.118C225.351 260.118 222.35 260.287 220.12 260.287C217.891 260.287 217.608 258.083 218.506 257.882C222.607 256.984 223.825 255.753 225.132 254.572C225.367 254.363 225.671 254.247 225.986 254.246Z" fill="#263238"/>
<path opacity="0.2" d="M232.749 242.552H225.42L225.929 248.901H233.258L232.749 242.552Z" fill="black"/>
<path d="M213.702 150.858C213.702 150.858 217.759 184.827 218.613 197.054C219.8 214.073 224.39 247.671 224.39 247.671H234.124C234.124 247.671 235.167 213.357 233.408 198.09C235.832 184.77 235.066 151.882 235.066 151.882L213.702 150.858Z" fill="#9F5DE2"/>
<path d="M224.001 247.878H234.69L235.173 244.455L223.135 244.229L224.001 247.878Z" fill="#263238"/>
<path d="M224.196 255.081C223.834 255.108 223.473 255.013 223.172 254.811C223.078 254.729 223.006 254.626 222.96 254.51C222.914 254.394 222.896 254.269 222.908 254.145C222.908 254.071 222.929 253.999 222.968 253.935C223.006 253.872 223.062 253.821 223.128 253.787C223.718 253.486 225.433 254.541 225.64 254.66C225.662 254.673 225.679 254.691 225.691 254.713C225.702 254.736 225.706 254.761 225.703 254.786C225.697 254.811 225.685 254.834 225.667 254.853C225.649 254.872 225.627 254.885 225.602 254.893C225.142 255.008 224.67 255.072 224.196 255.081ZM223.404 253.982C223.348 253.978 223.292 253.989 223.241 254.013C223.21 254.013 223.172 254.064 223.166 254.158C223.153 254.242 223.161 254.329 223.191 254.409C223.221 254.489 223.27 254.561 223.335 254.616C223.624 254.861 224.321 254.893 225.219 254.711C224.673 254.355 224.063 254.107 223.423 253.982H223.404Z" fill="#9F5DE2"/>
<path d="M225.577 254.893H225.515C224.968 254.591 223.901 253.429 224.014 252.833C224.033 252.74 224.083 252.657 224.156 252.598C224.23 252.538 224.321 252.506 224.416 252.506C224.511 252.493 224.607 252.5 224.7 252.527C224.792 252.554 224.877 252.6 224.949 252.663C225.577 253.172 225.697 254.704 225.703 254.767C225.704 254.79 225.7 254.813 225.69 254.834C225.68 254.855 225.665 254.873 225.646 254.886C225.624 254.894 225.601 254.896 225.577 254.893ZM224.504 252.739H224.447C224.284 252.739 224.271 252.839 224.265 252.87C224.196 253.216 224.893 254.126 225.42 254.516C225.382 253.909 225.164 253.327 224.792 252.845C224.711 252.778 224.609 252.741 224.504 252.739Z" fill="#9F5DE2"/>
<path d="M217.062 104.016L211.196 103.94C209.224 103.94 207.265 103.878 205.325 103.846C204.734 103.846 204.156 103.808 203.572 103.783C203.61 103.783 203.635 103.714 203.667 103.683C204.081 103.243 204.496 102.791 204.923 102.358C205.136 102.132 205.345 101.912 205.551 101.698C205.745 101.485 205.997 101.246 206.128 101.07L206.662 100.392C207.083 99.8554 207.324 99.1998 207.351 98.5183C207.378 97.8369 207.19 97.1642 206.814 96.5956C206.437 96.0271 205.891 95.5916 205.253 95.351C204.614 95.1104 203.917 95.0768 203.258 95.2551L202.097 95.5691C201.739 95.6758 201.381 95.7952 201.023 95.9145C200.319 96.1594 199.629 96.4294 198.944 96.7246C197.565 97.3337 196.232 98.0431 194.956 98.8472C193.635 99.6917 192.385 100.643 191.22 101.692C189.986 102.814 188.869 104.057 187.885 105.404C187.637 105.739 187.426 106.102 187.257 106.484C186.674 107.82 186.645 109.334 187.177 110.692C187.71 112.05 188.759 113.14 190.096 113.725L190.667 113.976C191.957 114.531 193.294 114.972 194.661 115.295C195.854 115.602 196.985 115.803 198.096 115.992C199.208 116.18 200.294 116.331 201.374 116.463C202.455 116.595 203.522 116.695 204.59 116.783C206.719 116.971 208.829 117.066 210.933 117.128C213.036 117.191 215.096 117.191 217.282 117.091C218.986 117.018 220.594 116.283 221.764 115.042C222.934 113.8 223.573 112.151 223.546 110.446C223.518 108.741 222.825 107.113 221.615 105.911C220.405 104.709 218.774 104.026 217.068 104.009L217.062 104.016Z" fill="#B55B52"/>
<path d="M220.478 115.477C215.41 121.254 203.215 119.094 203.215 119.094L203.887 104.7C208.067 103.78 212.33 103.286 216.61 103.224C223.769 103.212 224.535 110.842 220.478 115.477Z" fill="#263238"/>
<path d="M206.951 111.049C206.65 113.373 206.323 116.5 206.128 120.708C203.484 134.084 202.499 143.561 204.835 150.475C206.681 152.755 230.74 152.315 235.067 151.876C237.579 145.658 237.842 127.811 238.138 112.808C238.175 110.74 237.47 108.728 236.15 107.136C234.831 105.544 232.985 104.477 230.947 104.129C225.533 103.169 220.01 102.983 214.544 103.576C212.625 103.794 210.835 104.649 209.459 106.003C208.083 107.358 207.2 109.134 206.951 111.049Z" fill="#263238"/>
<path opacity="0.2" d="M230.293 120.18C230.375 124.752 233.691 132.056 237.421 135.761C237.647 131.899 237.792 127.71 237.905 123.484L230.293 120.18Z" fill="black"/>
<path d="M251.256 129.067L251.043 128.564C250.165 126.469 249.138 124.44 247.972 122.491C246.854 120.607 245.648 118.83 244.398 117.116C243.149 115.401 241.824 113.762 240.467 112.167C239.776 111.376 239.092 110.584 238.37 109.818L237.283 108.675L236.128 107.507C234.917 106.312 233.289 105.635 231.588 105.62C229.887 105.605 228.247 106.253 227.016 107.426C225.784 108.6 225.058 110.207 224.991 111.906C224.924 113.606 225.522 115.265 226.657 116.532L226.846 116.739L230.532 120.84C231.788 122.234 232.988 123.653 234.181 125.066C234.759 125.776 235.355 126.485 235.895 127.208C236.435 127.93 237.007 128.627 237.547 129.343C238.326 130.429 239.079 131.509 239.751 132.571C239.648 133.107 239.518 133.637 239.362 134.16C238.91 135.681 238.38 137.178 237.773 138.644C237.145 140.195 236.479 141.784 235.788 143.347C235.098 144.911 234.357 146.544 233.697 148.114L233.634 148.252C233.345 148.946 233.301 149.718 233.51 150.44C233.719 151.163 234.168 151.792 234.783 152.225C235.397 152.657 236.142 152.867 236.892 152.82C237.642 152.772 238.354 152.47 238.91 151.963C240.295 150.679 241.609 149.321 242.847 147.894C244.103 146.483 245.282 144.997 246.383 143.435C246.942 142.65 247.476 141.834 248.003 140.986C248.551 140.124 249.052 139.233 249.504 138.317C250.012 137.318 250.453 136.286 250.823 135.227C251.305 133.872 251.576 132.451 251.627 131.013C251.643 130.345 251.516 129.682 251.256 129.067Z" fill="#B55B52"/>
<path d="M231.374 104.21C239.846 105.661 245.366 117.128 245.366 117.128L235.155 128.112C235.155 128.112 229.27 122.121 225.735 116.569C221.923 110.528 225.308 103.18 231.374 104.21Z" fill="#263238"/>
<path d="M215.9 86.1302C214.481 83.7501 214.016 80.4782 216.616 77.1435C216.109 77.207 215.595 77.1222 215.136 76.8992C214.677 76.6763 214.292 76.3248 214.029 75.8875C216.876 73.5584 220.455 72.3125 224.133 72.3707C231.732 72.3707 232.297 75.3035 232.04 77.3068C237.239 77.6396 241.033 91.1605 227.851 93.5532C220.309 85.609 215.9 86.1302 215.9 86.1302Z" fill="#263238"/>
<path d="M231.562 77.5517C231.562 77.5517 233.679 75.3914 231.047 72.7789C231.637 72.9407 232.175 73.2525 232.609 73.6839C233.042 74.1153 233.357 74.6516 233.522 75.2407C233.892 76.7604 232.869 77.9788 231.562 77.5517Z" fill="#263238"/>
<path d="M228.648 91.9016C228.447 96.0652 228.07 100.8 228.767 104.122C227.687 105.824 224.924 107.784 219.975 108.223C218.217 107.225 215.893 104.782 216.703 103.526C218.807 102.176 219.699 98.0874 219.096 95.029L228.648 91.9016Z" fill="#B55B52"/>
<path opacity="0.2" d="M226.237 92.6865L219.084 95.029C219.327 96.3314 219.338 97.6666 219.116 98.9728C221.251 98.9037 224.209 97.296 225.32 95.7888C225.682 95.3651 225.951 94.8699 226.109 94.3353C226.267 93.8008 226.311 93.239 226.237 92.6865Z" fill="black"/>
<path d="M230.733 85.3075C229.408 90.4132 228.893 93.4715 225.766 95.613C221.062 98.8346 215.146 95.2236 214.914 89.8291C214.713 84.9684 216.911 77.4324 222.374 76.3585C223.577 76.1173 224.822 76.1876 225.99 76.5628C227.158 76.938 228.211 77.6057 229.049 78.5024C229.886 79.399 230.481 80.495 230.776 81.686C231.07 82.8771 231.056 84.1237 230.733 85.3075Z" fill="#B55B52"/>
<path d="M229.678 77.9976C227.436 79.5927 224.654 86.35 230.306 89.0629C235.38 84.6041 234.068 77.9976 229.678 77.9976Z" fill="#263238"/>
<path d="M230.972 78.8077C231.933 74.3614 220.71 72.0629 217.156 77.2565C215.95 80.384 230.294 83.1472 230.972 78.8077Z" fill="#263238"/>
<path d="M222.601 90.7272C221.435 90.2 220.185 89.8832 218.908 89.7914C218.891 89.7914 218.873 89.795 218.856 89.8021C218.84 89.8091 218.825 89.8193 218.813 89.8323C218.801 89.8452 218.791 89.8605 218.785 89.8772C218.778 89.8939 218.776 89.9118 218.777 89.9296C218.784 89.9702 218.804 90.0072 218.835 90.0346C218.866 90.062 218.905 90.0781 218.946 90.0803C220.17 90.1688 221.368 90.4706 222.488 90.9721C222.523 90.9875 222.563 90.989 222.599 90.9761C222.635 90.9633 222.665 90.9371 222.683 90.903C222.69 90.8862 222.693 90.8681 222.693 90.8499C222.692 90.8317 222.688 90.8137 222.68 90.7972C222.673 90.7807 222.662 90.7659 222.648 90.7539C222.634 90.7418 222.618 90.7327 222.601 90.7272Z" fill="#263238"/>
<path d="M231.958 90.8905C231.048 91.8565 229.793 92.4231 228.466 92.4668C226.708 92.5045 226.262 90.8277 227.11 89.3959C227.876 88.1399 229.71 86.5322 231.305 87.1727C232.9 87.8133 233.063 89.691 231.958 90.8905Z" fill="#B55B52"/>
<path d="M222.614 85.2196C222.532 85.6403 222.243 85.9418 221.986 85.8853C221.728 85.8287 221.559 85.4457 221.64 85.0249C221.722 84.6041 222.011 84.309 222.268 84.3969C222.526 84.4848 222.695 84.78 222.614 85.2196Z" fill="#263238"/>
<path d="M217.859 84.2964C217.778 84.7172 217.489 85.0124 217.231 84.9621C216.974 84.9119 216.798 84.5225 216.88 84.1018C216.961 83.681 217.25 83.3796 217.508 83.4361C217.765 83.4926 217.916 83.8757 217.859 84.2964Z" fill="#263238"/>
<path d="M219.329 84.78C218.576 85.9686 217.663 87.0484 216.616 87.9891C217.244 88.8243 218.632 88.6611 218.632 88.6611L219.329 84.78Z" fill="#CC7F77"/>
<path d="M221.929 82.7766C221.973 82.7668 222.02 82.7686 222.064 82.7818C222.108 82.795 222.148 82.8191 222.18 82.852C222.381 83.0957 222.638 83.2882 222.928 83.4137C223.219 83.5393 223.535 83.5943 223.85 83.5742C223.917 83.5651 223.984 83.5824 224.038 83.6223C224.092 83.6621 224.128 83.7215 224.139 83.7877C224.144 83.8204 224.143 83.8538 224.135 83.8859C224.127 83.9181 224.113 83.9483 224.093 83.9747C224.073 84.0011 224.048 84.0232 224.019 84.0396C223.99 84.0561 223.958 84.0665 223.926 84.0703C223.527 84.1024 223.126 84.0388 222.757 83.8848C222.388 83.7308 222.061 83.4908 221.803 83.1848C221.779 83.162 221.761 83.1347 221.748 83.1045C221.735 83.0743 221.729 83.0418 221.729 83.009C221.729 82.9762 221.735 82.9437 221.748 82.9135C221.761 82.8833 221.779 82.856 221.803 82.8332C221.84 82.8054 221.883 82.7861 221.929 82.7766Z" fill="#263238"/>
<path d="M216.39 81.3825C216.338 81.3717 216.291 81.3428 216.258 81.3009C216.237 81.2747 216.221 81.2445 216.212 81.2122C216.203 81.1798 216.2 81.146 216.204 81.1126C216.208 81.0792 216.219 81.047 216.236 81.0178C216.253 80.9887 216.275 80.9632 216.302 80.9429C216.61 80.6901 216.975 80.5144 217.365 80.4303C217.754 80.3462 218.159 80.3562 218.544 80.4593C218.608 80.4809 218.66 80.5264 218.691 80.5863C218.721 80.6461 218.727 80.7155 218.707 80.7796C218.682 80.8402 218.636 80.8896 218.577 80.9185C218.518 80.9474 218.45 80.9539 218.387 80.9366C218.08 80.8583 217.759 80.854 217.45 80.9238C217.141 80.9937 216.853 81.1358 216.61 81.3385C216.58 81.3649 216.545 81.3829 216.506 81.3906C216.467 81.3984 216.427 81.3956 216.39 81.3825Z" fill="#263238"/>
<path d="M236.662 147.932L231.267 147.894L234.056 154.086C234.056 154.086 238.659 153.1 238.408 150.601L236.662 147.932Z" fill="#B55B52"/>
<path d="M228.523 152.146L229.408 153.891C229.646 154.356 230.049 154.716 230.538 154.899C231.027 155.083 231.567 155.077 232.052 154.884L234.055 154.086L231.267 147.894L229.125 149.527C228.733 149.823 228.458 150.248 228.348 150.727C228.238 151.205 228.299 151.708 228.523 152.146Z" fill="#B55B52"/>
<path d="M202.925 95.3932L208.15 94.0555L206.932 100.737C206.932 100.737 202.228 100.882 201.876 98.4013L202.925 95.3932Z" fill="#B55B52"/>
<path d="M211.818 97.5975L211.416 99.3433C211.293 99.8766 210.974 100.344 210.523 100.655C210.073 100.965 209.522 101.095 208.98 101.02L206.932 100.737L208.151 94.0555L210.55 95.0917C211.021 95.2948 211.406 95.6568 211.638 96.1147C211.87 96.5726 211.934 97.0974 211.818 97.5975Z" fill="#B55B52"/>
</svg>
